<?xml version="1.0" standalone="no"?>
<!DOCTYPE svg PUBLIC "-//W3C//DTD SVG 20010904//EN"
 "http://www.w3.org/TR/2001/REC-SVG-20010904/DTD/svg10.dtd">
<svg version="1.0" xmlns="http://www.w3.org/2000/svg"
 width="500.000000pt" height="500.000000pt" viewBox="0 0 500.000000 500.000000"
 preserveAspectRatio="xMidYMid meet">
<metadata>
Created by potrace 1.11, written by Peter Selinger 2001-2013
</metadata>
<g transform="translate(0.000000,500.000000) scale(0.100000,-0.100000)"
fill="#000000" stroke="none">
<path d="M2600 4888 c52 -71 72 -142 77 -263 2 -60 9 -123 15 -140 23 -62 77
-120 193 -211 l120 -93 8 27 c11 37 0 208 -19 279 -8 32 -28 81 -45 108 l-30
50 30 -31 c51 -56 86 -177 93 -321 1 -34 5 -59 9 -55 11 13 47 156 54 213 8
67 -12 150 -52 210 -54 81 -190 165 -375 230 l-107 37 29 -40z"/>
<path d="M3450 4555 c-60 -19 -94 -53 -119 -120 -32 -84 -25 -94 18 -29 22 33
50 65 63 73 16 10 12 2 -14 -27 -21 -23 -49 -65 -63 -93 l-27 -52 24 6 c13 4
46 11 74 17 64 14 111 42 132 81 33 60 73 110 103 128 l30 18 -47 7 c-69 9
-124 6 -174 -9z"/>
<path d="M2084 4432 c-67 -78 -96 -137 -101 -205 -6 -75 8 -114 68 -179 l39
-43 -25 57 c-14 31 -28 80 -31 110 l-5 53 20 -72 c20 -71 53 -147 70 -157 10
-7 61 128 68 182 4 30 -2 56 -28 113 -24 52 -33 89 -34 126 0 29 -2 53 -5 52
-3 0 -19 -17 -36 -37z"/>
<path d="M2590 4167 c-230 -127 -331 -257 -305 -394 7 -39 52 -162 64 -175 4
-4 5 24 3 63 -5 81 11 177 39 231 28 54 32 47 6 -9 -18 -40 -22 -66 -22 -158
0 -60 4 -123 8 -139 l8 -29 90 89 c50 49 103 112 120 141 29 50 29 55 28 175
-1 126 8 174 46 232 10 14 16 26 14 26 -2 0 -47 -24 -99 -53z"/>
<path d="M3395 4091 c-36 -16 -150 -109 -143 -116 2 -2 41 10 88 26 62 21 102
28 150 27 l65 -1 -65 -7 c-36 -4 -76 -10 -90 -14 -41 -13 -160 -68 -160 -75 0
-3 55 -31 123 -60 155 -68 200 -72 297 -21 58 30 74 34 145 34 l80 1 -64 57
c-164 142 -320 198 -426 149z"/>
<path d="M1518 3990 c-108 -19 -240 -77 -373 -164 l-70 -46 35 0 c54 0 146
-27 198 -57 26 -15 78 -54 117 -87 124 -105 182 -114 415 -67 85 17 159 33
164 34 15 5 -105 116 -181 167 -75 50 -167 90 -208 90 -13 0 -27 5 -30 10 -9
15 68 2 133 -22 55 -21 205 -116 255 -162 15 -14 27 -22 27 -19 0 18 -135 205
-171 237 -83 76 -196 107 -311 86z"/>
<path d="M3065 3795 c-26 -318 9 -635 95 -879 16 -44 28 -81 27 -83 -1 -1 -63
28 -138 65 -74 37 -207 91 -294 121 -88 30 -186 68 -218 84 -100 52 -228 200
-282 325 -29 68 -28 41 1 -34 40 -99 102 -199 154 -247 25 -23 43 -43 40 -44
-3 -2 -70 -5 -150 -7 -80 -3 -194 -12 -255 -20 -248 -33 -335 -58 -123 -36
139 15 325 7 463 -21 110 -22 291 -75 299 -87 3 -5 -34 -6 -82 -4 -109 5 -212
-16 -307 -62 -87 -42 -131 -76 -54 -41 108 48 211 68 328 62 196 -9 361 -72
511 -193 45 -36 79 -68 77 -70 -2 -3 -38 5 -78 16 -96 28 -284 38 -383 20 -83
-15 -231 -62 -298 -96 -38 -19 -45 -27 -41 -44 4 -13 11 -19 20 -16 54 21 188
47 289 57 108 10 130 9 235 -10 187 -34 321 -99 440 -215 163 -159 283 -405
340 -697 60 -311 4 -687 -143 -949 -102 -181 -285 -380 -403 -436 -65 -31
-144 -33 -170 -4 -21 23 -30 138 -40 535 l-7 261 83 51 c306 188 458 407 484
693 22 259 -121 470 -353 519 -75 16 -236 14 -329 -4 -589 -113 -1150 -670
-1304 -1295 -20 -81 -23 -121 -23 -270 0 -166 1 -179 27 -255 38 -107 68 -157
144 -236 69 -72 144 -117 237 -144 92 -27 287 -17 384 19 138 51 278 152 369
265 26 33 51 60 56 60 4 1 7 -21 7 -47 0 -68 18 -160 41 -203 13 -27 33 -45
74 -64 51 -25 62 -27 152 -23 84 3 107 8 163 35 36 17 84 44 107 61 61 46 322
339 386 435 95 144 187 348 207 461 5 26 14 62 19 80 30 95 41 363 21 526 -29
232 -129 491 -273 702 -312 458 -488 929 -515 1378 l-8 125 -9 -120z m-73
-1630 c134 -33 244 -118 300 -233 32 -65 33 -70 33 -197 0 -110 -4 -140 -23
-197 -43 -125 -137 -246 -252 -324 -41 -29 -123 -74 -133 -74 -3 0 -8 127 -12
283 -4 155 -10 309 -14 343 l-6 60 -114 -54 -113 -55 7 -301 c4 -166 8 -312 9
-326 1 -24 -1 -25 -64 -24 -181 2 -305 117 -318 296 -9 134 55 268 193 397 52
48 73 74 69 85 -9 22 -17 21 -95 -20 -136 -72 -268 -224 -315 -364 -28 -80
-26 -219 4 -283 43 -97 124 -165 233 -198 54 -16 89 -20 182 -17 l115 3 7
-182 7 -182 -45 -68 c-68 -101 -128 -165 -204 -217 -101 -68 -168 -90 -283
-90 -83 -1 -102 3 -153 26 -129 60 -232 206 -279 393 -29 120 -32 385 -5 515
56 266 168 476 362 679 264 275 606 398 907 326z"/>
<path d="M3326 3564 c18 -70 29 -93 60 -126 41 -43 100 -74 149 -80 23 -2 29
1 26 12 -41 166 -49 182 -104 224 -35 26 -107 56 -137 56 -15 0 -15 -7 6 -86z"/>
<path d="M1034 3227 c-113 -43 -204 -121 -337 -288 -30 -38 -36 -51 -22 -45
93 36 197 27 320 -26 53 -23 85 -31 131 -31 72 0 110 16 269 110 l115 68 -43
21 c-132 67 -310 101 -400 76 -20 -6 -35 -7 -32 -2 7 12 89 30 138 30 46 0
212 -39 273 -65 19 -8 34 -12 34 -10 0 2 -37 32 -82 66 -154 115 -249 140
-364 96z"/>
<path d="M1725 3020 l-20 -9 20 0 c11 0 29 4 40 9 l20 9 -20 0 c-11 0 -29 -4
-40 -9z"/>
<path d="M1878 2719 c-47 -4 -94 -15 -122 -29 -108 -52 -168 -231 -157 -469 1
-23 2 -22 24 10 31 46 96 93 164 119 66 25 95 48 128 105 26 46 90 234 82 242
-10 9 -128 -35 -178 -68 -27 -17 -61 -45 -75 -63 -14 -17 -21 -22 -15 -10 18
36 89 93 159 127 37 17 69 33 71 34 12 8 -11 8 -81 2z"/>
<path d="M1229 2660 c-62 -11 -101 -32 -138 -77 -41 -49 -51 -87 -59 -209 l-7
-100 45 46 c31 32 64 53 108 69 38 15 73 36 91 56 25 28 91 179 91 207 0 23
-136 -40 -189 -87 -22 -21 -41 -33 -41 -27 0 17 70 70 134 102 62 31 55 35
-35 20z"/>
<path d="M2290 2508 l-35 -23 28 -3 c31 -4 57 12 57 34 0 19 -9 18 -50 -8z"/>
<path d="M2180 2444 c-82 -54 -82 -58 -2 -19 40 20 72 40 72 45 0 16 -13 12
-70 -26z"/>
</g>
</svg>
